<?xml version="1.0" standalone="no"?>
<!DOCTYPE svg PUBLIC "-//W3C//DTD SVG 20010904//EN"
 "http://www.w3.org/TR/2001/REC-SVG-20010904/DTD/svg10.dtd">
<svg version="1.0" xmlns="http://www.w3.org/2000/svg"
 width="404.000000pt" height="404.000000pt" viewBox="0 0 404.000000 404.000000"
 preserveAspectRatio="xMidYMid meet">
<metadata>
Created by potrace 1.11, written by Peter Selinger 2001-2013
</metadata>
<g transform="translate(0.000000,404.000000) scale(0.100000,-0.100000)"
fill="#000000" stroke="none">
<path d="M0 2020 l0 -2020 2020 0 2020 0 0 2020 0 2020 -2020 0 -2020 0 0
-2020z m1508 1472 c188 -49 337 -158 430 -314 47 -79 100 -234 123 -362 19
-99 21 -165 26 -622 6 -573 -3 -777 -41 -945 -57 -250 -167 -420 -336 -519
-159 -93 -271 -110 -737 -110 l-353 0 0 1451 0 1451 403 -5 c372 -3 408 -5
485 -25z m1382 -1202 l0 -1230 290 0 290 0 0 -220 0 -220 -555 0 -555 0 0
1450 0 1450 265 0 265 0 0 -1230z"/>
<path d="M1150 2065 l0 -1045 73 0 c192 0 266 74 299 297 18 122 18 1383 1
1495 -18 114 -47 187 -91 230 -31 31 -50 41 -107 53 -39 8 -94 15 -122 15
l-53 0 0 -1045z"/>
</g>
</svg>
